<?xml version="1.0" encoding="UTF-8" standalone="no"?><svg xmlns="http://www.w3.org/2000/svg" xmlns:xlink="http://www.w3.org/1999/xlink" fill="#ff006b" height="283.3" preserveAspectRatio="xMidYMid meet" version="1" viewBox="8.5 8.3 282.9 283.3" width="282.9" zoomAndPan="magnify"><g><g id="change1_20"><path d="M28.4,291.4h-0.9c-0.9-1-2.2-1.7-3.5-1.9c-1.5-0.3-3,0-4.1,0.8c-0.5,0.3-0.8,0.7-1.2,1.1h-0.9c0.4-0.7,1-1.3,1.6-1.7 c1.3-0.9,3-1.3,4.7-0.9C25.8,289.1,27.4,290.1,28.4,291.4z"/></g><g><g><g id="change1_15"><path d="M291.4,69.5v0.7c-2.4-0.3-4.8-0.4-7.2-0.5c-32.3-1.5-61.5,12.3-74.5,35.2c-2.1,3.6-3.8,7.6-5.5,11.4 c-2.9,6.7-6,13.7-11,19.2c-2.8,3-6.2,5.5-10.1,7.3c-3.8,1.7-7.8,2.8-12.1,3.2c-1.1,0.1-2.1,0.1-3.1,0.1c-3.2,0-6.3-0.4-9.3-1.2 c-4.2-1.1-7.9-3-11.2-5.5c-6.5-5.1-11.2-12.5-13.9-22c-2.2-7.9-3-17-2.3-27c0.4-5.3,1-10.6,1.6-15.8c1.5-12.3,3-25,0.7-37.3 c-2-10.5-6.9-20.4-13.8-28.5h1c0.2,0.2,0.4,0.5,0.6,0.7c6.6,8.2,11.1,17.7,13,27.7c2.3,12.4,0.8,25.2-0.7,37.5 c-0.6,5.2-1.3,10.5-1.6,15.8c-0.9,12.8,0.1,36.1,15.9,48.4c13.1,10.2,33.7,8.5,44.9-3.8c5-5.4,8-12.3,10.9-19 c1.7-3.8,3.4-7.8,5.5-11.5c3.5-6.1,8.1-11.7,13.7-16.5c5.3-4.5,11.5-8.3,18.3-11.3c6.5-2.9,13.6-5,21.1-6.3 c7.2-1.3,14.6-1.8,22-1.4C286.6,69.1,289,69.3,291.4,69.5z"/></g></g><g><g id="change1_16"><path d="M291.4,51.4v0.7c-8.8-2.5-17.7-3.5-26.5-3.2c-22.2,1-43.2,12.1-54.7,29.1c-2.5,3.6-4.6,7.6-6.6,11.5 c-1.4,2.6-2.8,5.3-4.3,7.8c-4.7,7.9-9.6,13-15.2,16c-3.3,1.7-7.1,2.7-10.7,2.7c-0.1,0-0.1,0-0.2,0c-4,0-7.6-1.2-10.4-3.4 c-4.2-3.2-6.9-8.9-7.4-15.4c-0.4-5.4,0.5-10.8,1.4-16c0.1-0.4,0.1-0.8,0.2-1.3c2.8-16,4.9-34.8,0.1-52.5 c-1.9-7-4.8-13.3-8.6-18.8h0.8c3.7,5.6,6.6,11.9,8.4,18.6c4.8,17.9,2.6,36.7-0.1,52.8c-0.1,0.4-0.1,0.8-0.2,1.3 c-0.9,5.2-1.8,10.6-1.4,15.8c0.5,6.4,3.1,11.8,7.1,14.9c6.2,4.7,14.8,3.7,20.6,0.6c5.5-3,10.3-8,14.9-15.8 c1.5-2.5,2.9-5.2,4.3-7.8c2.1-3.9,4.2-7.8,6.7-11.5c5.9-8.6,14.2-15.9,24.1-21.1c9.6-5,20.4-7.9,31.2-8.3 C273.6,47.9,282.5,48.9,291.4,51.4z"/></g></g><g><g id="change1_4"><path d="M291.4,36.8v0.7c-11.4-4.3-21.9-6.6-32.1-7c-21.6-0.8-41.5,8-52,23c-1.4,1.9-2.6,4-3.8,6c-2.3,3.9-4.7,7.9-8,11 c-2.6,2.5-6.1,4.2-9.5,4.8c-0.9,0.2-1.7,0.2-2.5,0.2c-2.8,0-5.3-0.9-7.2-2.5c-2.9-2.6-4.4-6.9-4.1-12c0.2-3,0.9-5.9,1.7-8.8 c0.3-1.2,0.6-2.5,0.9-3.8c3-13.7,0-28.2-7.2-40.1h0.8c1.3,2.1,2.4,4.4,3.4,6.7c4.7,10.8,6,22.7,3.6,33.5 c-0.3,1.3-0.6,2.6-0.9,3.8c-0.7,2.8-1.5,5.7-1.6,8.7c-0.3,4.8,1.1,9,3.9,11.4c2.3,2,5.6,2.8,9.2,2.2c3.3-0.6,6.6-2.3,9.1-4.6 c3.3-3.1,5.6-7.1,7.9-10.9c1.2-2,2.5-4.1,3.8-6.1c5.4-7.8,13.4-14,23.1-18.1c9-3.8,19.2-5.6,29.5-5.2 C269.5,30.2,280,32.5,291.4,36.8z"/></g></g><g><g id="change1_12"><path d="M237.2,8.6c-1.1,1.4-2.3,2.7-3.5,3.9c-3.9,3.9-8.9,7-14.3,9c-4.3,1.6-8.9,2.4-13.4,2.4c-1.1,0-2.2-0.1-3.4-0.2 c-4-0.4-11.4-1.8-15.7-7.5c-1.6-2.1-2.6-4.7-3-7.6h0.7c0.4,2.7,1.4,5.2,2.9,7.2c4,5.5,11.2,6.9,15.2,7.3 c1.1,0.1,2.2,0.2,3.4,0.2c10,0,19.9-4,27-11.2c1.1-1.1,2.1-2.3,3.1-3.4H237.2z"/></g></g><g><g id="change1_10"><path d="M291.4,20.6v0.7c-0.2,0-0.3,0.1-0.5,0.1c-8.1,1.7-16.5,3.4-24.9,2.5c-2-0.2-5-0.7-7.4-2.2c-2.5-1.5-4.1-3.9-4.3-6.4 c-0.2-2.6,1-4.9,2.9-6.7h1c-2,1.9-3.4,4.1-3.2,6.7c0.2,2.3,1.7,4.5,4,5.9c2.4,1.4,5.2,1.9,7.1,2.1c8.2,0.9,16.6-0.8,24.6-2.5 C291,20.7,291.2,20.6,291.4,20.6z"/></g></g><g><g id="change1_1"><path d="M227.3,8.6c-4,3.9-9.7,6-15.5,6c-1.2,0-2.4-0.1-3.7-0.3c-4.3-0.7-7.8-2.5-9.8-5.2c-0.1-0.2-0.2-0.3-0.4-0.5h0.9 c0,0,0,0.1,0.1,0.1c1.9,2.5,5.2,4.3,9.3,5c1.2,0.2,2.4,0.3,3.6,0.3c5.4,0,10.7-1.9,14.5-5.3H227.3z"/></g></g><g><g id="change1_17"><path d="M291.4,12.6v0.7c-0.9,0.2-1.7,0.4-2.6,0.7l-0.5,0.1c-2.2,0.6-4.6,1.3-6.9,1.3c-0.4,0-0.8,0-1.2-0.1 c-2.7-0.3-6-2-6.8-5.1c-0.1-0.5-0.2-1.1-0.1-1.6h0.7c0,0.5,0,1,0.1,1.4c0.7,2.8,3.7,4.3,6.2,4.6c2.6,0.3,5.3-0.5,7.8-1.2 l0.5-0.1C289.6,13,290.5,12.8,291.4,12.6z"/></g></g><g><g id="change1_7"><path d="M291.4,96.9v0.7c-5.3-0.5-10.6-0.5-16-0.1c-21,1.8-46.2,14.6-52,38.5c-1,4.2-1.4,8.6-1.7,12.9 c-0.6,6.7-1.1,13.7-4.2,19.8c-2.8,5.7-7.7,10.4-14.4,14c-5.4,2.9-12.1,5.1-19.8,6.6c-3.2,0.6-6.4,1.1-9.5,1.6 c-10.3,1.6-20.9,3.2-30,8.4c-14.9,8.4-24.3,26.4-24.2,45.7c0.2,18.9,8.7,35.3,16.7,46.6h-0.9c-8-11.4-16.4-27.7-16.6-46.6 c-0.1-9.3,2.1-18.5,6.2-26.6c4.4-8.6,10.7-15.4,18.3-19.7c9.2-5.2,19.9-6.9,30.2-8.4c3.1-0.5,6.4-1,9.5-1.6 c17.3-3.2,28.7-10,33.7-20.2c3-6,3.6-12.9,4.1-19.5c0.4-4.3,0.7-8.8,1.7-13c2.6-10.7,9.4-20.1,19.6-27.3 c9.4-6.6,21.1-10.7,32.9-11.7C280.5,96.3,285.8,96.4,291.4,96.9z"/></g></g><g><g id="change1_18"><path d="M291.4,125.9v0.7c-6.3-0.6-12.5-0.4-18.4,1.8c-8.9,3.4-16.7,11.7-21.8,23.5c-2.6,6.1-4.5,12.7-6.3,19 c-1.2,4.1-2.4,8.4-3.8,12.6c-4.5,13-10.5,21.8-18.4,27.1c-8.8,5.9-19.7,7.2-30.3,8.4c-2.2,0.3-4.4,0.5-6.5,0.8 c-16.5,2.2-27.3,8-32,17.2c-3.6,7-3.6,16.1,0,25.1c3.3,8.1,8.8,15.1,14.1,21.9l5.8,7.4h-0.9l-5.5-6.9 c-5.4-6.8-10.9-13.8-14.2-22c-3.7-9.2-3.7-18.6,0-25.7c4.9-9.4,15.8-15.3,32.5-17.6c2.2-0.3,4.4-0.6,6.6-0.8 c10.5-1.2,21.3-2.5,30-8.3c7.8-5.2,13.7-14,18.1-26.8c1.4-4.1,2.6-8.4,3.8-12.5c1.8-6.3,3.7-12.9,6.3-19.1 c2.4-5.5,5.4-10.3,8.8-14.3c4-4.5,8.4-7.7,13.3-9.6c4.1-1.6,8.8-2.3,14.2-2.1C288.4,125.7,289.9,125.8,291.4,125.9z"/></g></g><g><g id="change1_2"><path d="M291.4,159.4v0.7c-9.5-0.4-16.4,1.5-21,5.8c-5.8,5.3-7.4,13.7-8.1,21.2c-0.1,0.9-0.2,1.8-0.3,2.7 c-0.7,6.9-1.3,14.1-4.9,20.1c-2,3.4-5,6.4-8.9,9c-3.2,2.1-7.1,4-11.6,5.5c-3,1.1-6.2,1.9-9.2,2.8c-5,1.4-10.1,2.9-14.8,5 c-8.8,4.1-14.9,10.4-16.7,17.5c-1.3,5.2-0.5,11.4,2.4,17.5c2.6,5.5,6.5,10.3,10.3,14.9l7.4,9.2h-0.9l-7.1-8.8 c-3.8-4.7-7.7-9.5-10.4-15.1c-1.4-2.9-2.4-5.9-2.8-8.8c-0.5-3.2-0.4-6.3,0.3-9.1c1-3.9,3.2-7.5,6.5-10.8 c2.8-2.8,6.5-5.3,10.7-7.2c4.8-2.2,9.9-3.7,14.9-5.1c3-0.9,6.2-1.8,9.2-2.8c9.8-3.4,16.4-8.1,20.1-14.2c3.5-5.9,4.2-13,4.8-19.8 c0.1-0.9,0.2-1.8,0.3-2.7c0.3-3,0.9-7.6,2.3-11.7c1.4-4.2,3.4-7.5,6.1-9.9C274.7,161,281.7,159,291.4,159.4z"/></g></g><g><g id="change1_26"><path d="M291.4,208.6v0.9c-1.7,1.5-3.1,3.1-4.3,4.9c-1.8,2.6-3.2,5.6-4.6,8.6c-2,4.2-4,8.6-7.4,11.9c-5.3,5.2-13,6.9-20.3,8.5 c-0.8,0.2-1.6,0.3-2.4,0.5c-6.8,1.5-16.3,4.4-20.1,12c-2.9,5.7-2.1,13.2,2.1,20.2c2.8,4.7,6.8,8.8,10.6,12.6 c0.9,0.9,1.8,1.8,2.6,2.7h-1c-0.7-0.7-1.5-1.5-2.2-2.2c-3.9-3.9-7.9-8-10.7-12.8c-2-3.3-3.3-6.8-3.7-10.3 c-0.5-3.9,0-7.5,1.6-10.6c4-7.9,13.7-10.8,20.6-12.4c0.8-0.2,1.6-0.3,2.4-0.5c7.3-1.6,14.8-3.2,20-8.3c3.3-3.2,5.3-7.5,7.2-11.7 c1.4-2.9,2.8-6,4.6-8.7C287.9,212.1,289.5,210.2,291.4,208.6z"/></g></g><g><g id="change1_9"><path d="M291.4,246.4v0.7c-1.5,0.6-3,1.2-4.5,1.8c-10.2,4.3-16.1,10-17.6,16.7c-1.9,8.8,4.3,17.2,10.8,22.2 c1.7,1.3,3.4,2.5,5.2,3.6H284c-1.5-1-3-1.9-4.3-3c-6.6-5.1-13-13.8-11-22.9c1.5-7,7.6-12.8,18-17.2 C288.2,247.6,289.8,247,291.4,246.4z"/></g></g><g><g id="change1_21"><path d="M142,170.6c-0.6,4.1-2.4,8.2-5.1,11.5c-4.7,5.7-11.9,9.8-21.5,12.2c-5.5,1.4-11.2,2.1-17,2.1c-2.6,0-5.3-0.1-7.9-0.4 c-8.4-0.9-16.5-3.3-24-7c-7.1-3.5-13.7-8.3-20-12.9c-4.6-3.3-9.4-6.8-14.3-9.7c-5.4-3.2-14.1-7.5-23.6-8.4v-0.7 c9.6,0.9,18.5,5.2,23.9,8.5c5,3,9.7,6.4,14.3,9.8c6.3,4.6,12.8,9.3,19.9,12.8c9.7,4.8,20.7,7.3,31.6,7.3c5.7,0,11.3-0.7,16.8-2 c9.4-2.3,16.6-6.4,21.1-11.9c5.6-6.8,6.8-16.2,3-22.8c-3.2-5.5-8.9-8.2-14.9-11.2c-4-2-8.1-4-11.4-6.8 c-3.7-3.1-6.4-7.4-8.3-12.6c-1.6-4.5-2.5-9.7-2.5-15.2c-0.1-6.6,0.9-13.2,1.9-19.6c0.5-3.5,1-7.1,1.4-10.6 c2.6-25.9-3.9-52.4-17.9-74.2h0.8c0.3,0.4,0.5,0.8,0.8,1.2c4.4,7.2,8.1,14.9,10.9,23c2.8,8,4.8,16.4,5.8,24.7 c1.1,8.5,1.2,17,0.3,25.4c-0.4,3.6-0.9,7.2-1.4,10.7c-0.9,6.4-1.9,13-1.9,19.5c0.1,6.8,1.5,19.4,10.6,27.2 c3.3,2.8,7.3,4.8,11.2,6.7c5.8,2.9,11.8,5.8,15.2,11.5C141.9,161.9,142.6,166.1,142,170.6z"/></g></g><g><g id="change1_14"><path d="M98,170.1c-2.2,2.4-5.4,3.6-9.2,3.6h-0.1c-3.3,0-6.9-1-9.9-2.8c-4.4-2.6-7.8-6.5-11.2-10.3c-1.1-1.3-2.3-2.6-3.4-3.8 c-14.1-14.9-35.1-23.3-55.7-22.9v-0.7c8.5-0.2,17.1,1.1,25.4,3.8c11.9,3.9,22.5,10.6,30.8,19.3c1.2,1.2,2.3,2.5,3.4,3.8 c3.3,3.7,6.7,7.6,11,10.2c5.4,3.3,13.7,4.2,18.3-0.7c4.3-4.5,3.5-11.8,0.6-16.7c-3.2-5.4-8.8-9.2-13.4-12.2 c-5.1-3.5-10.4-7-13.7-12.3c-3-4.7-4.2-10.3-3.8-17.3c0.4-6.1,2-12.4,3.5-18.5c0.5-2.1,1-4.2,1.5-6.2 c5.9-26.1,1.2-54.5-12.1-77.7H61c4.3,7.7,7.8,15.9,10.3,24.6c5,17.7,5.6,36.1,1.6,53.3c-0.5,2.1-1,4.2-1.5,6.2 c-3.1,12.3-6.3,25,0.2,35.2c3.2,5.2,8.5,8.7,13.5,12.1c4.6,3.1,10.3,6.9,13.6,12.5C101.8,157.7,102.5,165.4,98,170.1z"/></g></g><g><g id="change1_24"><path d="M46.8,79.4c-2.9,10.9-11.3,20.1-21.9,24c-3.9,1.4-8,2.1-12.1,2.1c-1.4,0-2.8-0.1-4.2-0.2v-0.7c5.4,0.6,10.9,0,16-1.8 C35,98.9,43.3,89.9,46.1,79.2c2.2-8.2,1.3-16.8,0.1-24.1c-2.6-16-7.7-31.8-14.8-46.5h0.8c2.1,4.2,4,8.6,5.7,13 c4.2,10.8,7.2,22,9.1,33.3C48.1,62.3,49,71,46.8,79.4z"/></g></g><g><g id="change1_19"><path d="M21.3,59.2C19,64.6,14.7,69.4,9.5,72.4c-0.3,0.2-0.6,0.3-0.9,0.5v-0.8c5.3-2.9,9.8-7.8,12-13.2c3.8-9,3.8-19.9,0-34.4 c-1.4-5.4-3.2-10.8-5.2-16h0.8c2,5.2,3.7,10.4,5.1,15.8C23.1,31,24,36.7,24.2,42C24.4,48.5,23.5,54.1,21.3,59.2z"/></g></g><g><g id="change1_3"><path d="M98.3,235.8c-0.5,5-2,9.9-3.4,14.6c-0.7,2.4-1.5,4.8-2.1,7.2c-2.8,11-2.8,22.7-0.1,33.8H92c-0.6-2.7-1.1-5.5-1.4-8.3 c-1-8.7-0.5-17.4,1.6-25.7c0.6-2.4,1.4-4.9,2.1-7.3c1.4-4.7,2.9-9.5,3.4-14.4c0.6-6.7-1.1-15.3-7.7-19.5 c-5.6-3.5-12.1-2.6-19.1-1.7c-4.9,0.7-10.1,1.4-14.9,0.4c-8-1.7-14.2-7.9-19.2-13.7c-0.6-0.7-1.3-1.5-1.9-2.2 c-4.5-5.3-9.1-10.7-15.3-13.9c-3.3-1.7-7.3-2.5-11.1-2.2v-0.7c3.9-0.3,8,0.5,11.4,2.2c6.3,3.2,10.9,8.7,15.5,14.1 c0.6,0.7,1.2,1.5,1.9,2.2c4.9,5.8,11.1,11.9,18.8,13.5c4.7,1,9.7,0.3,14.6-0.4c3.4-0.5,6.9-0.9,10.2-0.8c3.7,0.1,6.8,1,9.4,2.6 c3,1.9,5.3,4.9,6.7,8.8C98.2,227.9,98.7,231.8,98.3,235.8z"/></g></g><g><g id="change1_8"><path d="M81.1,274.9c-0.5,5.4-1,11-0.8,16.5h-0.7c-0.2-5.6,0.3-11.1,0.8-16.6c0.7-8.4,1.5-17.1-0.1-25.4 c-1-5.1-3.3-11.9-9.1-15.2c-5.1-3-11.3-2.4-17.4-1.8c-6.3,0.6-12.8,1.2-18.1-2.1c-5-3.1-7.4-8.7-9.7-14.2 c-2.2-5.2-4.4-10.5-9-13.6c-2.5-1.7-5.5-2.6-8.5-2.5v-0.7c3.1-0.1,6.3,0.8,8.9,2.6c4.7,3.2,7,8.7,9.2,13.9 c2.3,5.3,4.6,10.9,9.4,13.9c5.1,3.2,11.5,2.6,17.6,2c6.2-0.6,12.5-1.2,17.8,1.9c2.5,1.5,4.7,3.8,6.3,6.7 c1.4,2.5,2.4,5.6,3.1,8.9C82.6,257.7,81.8,266.5,81.1,274.9z"/></g></g><g><g id="change1_11"><path d="M72.8,291.4h-0.7c0-0.1,0-0.1,0-0.2c-0.5-9.3-1-19-4-27.9c-0.9-2.7-2.5-6.6-5.5-9.1c-3.9-3.2-9.4-3.7-14.2-3.6 c-0.6,0-1.2,0-1.9,0c-4.5,0-9.2,0.1-13.3-1.7c-5.3-2.3-8.9-7.1-12.1-11.4c-3-4-6.7-8.9-11.8-11.1c-0.2-0.1-0.4-0.2-0.6-0.2v-0.7 c0.3,0.1,0.6,0.2,0.9,0.3c5.4,2.3,9.1,7.3,12.1,11.3c3.1,4.2,6.7,9,11.8,11.2c4,1.7,8.6,1.7,13,1.6c0.6,0,1.2,0,1.9,0 c5,0,10.6,0.4,14.7,3.8c3.2,2.6,4.8,6.7,5.7,9.5c3,9,3.6,18.7,4.1,28.1C72.8,291.3,72.8,291.3,72.8,291.4z"/></g></g><g><g id="change1_5"><path d="M51.9,291.4h-0.7c-0.8-4.6-2.7-10.4-7.3-13.8c-4-3.1-9.4-3.8-14.6-4.6c-5.7-0.8-11.7-1.7-15.8-5.7 c-1.8-1.7-3-3.8-4.3-5.9c-0.2-0.3-0.4-0.7-0.6-1V259c0,0,0,0,0,0c0.4,0.7,0.8,1.3,1.2,2c1.2,2,2.4,4.1,4.1,5.7 c4,3.9,9.6,4.7,15.5,5.5c5.3,0.8,10.7,1.5,14.9,4.7C49.1,280.6,51.1,286.6,51.9,291.4z"/></g></g><g><g id="change1_22"><path d="M38.4,291.4h-0.8c-3.5-5.3-9.6-8.9-15.9-9.3c-3.6-0.2-6.6,0.7-8.6,2.6c-1.9,1.7-2.8,4.1-3.2,6.7H9.2 c0.5-2.8,1.4-5.3,3.4-7.2c2.1-2,5.4-2.9,9.1-2.8c3.9,0.2,7.7,1.6,11,3.9C35.1,287,37,289.1,38.4,291.4z"/></g></g><g><g id="change1_25"><path d="M209.3,148c-0.5-2.3-1.9-4.3-3.9-5.5c-2.1-1.3-4.8-1.5-7.2-0.8c-1.4,0.4-2.5,1.3-3.6,2.2c-0.2,0.2-0.5,0.4-0.7,0.5 c-2,1.6-4.1,2.7-6.4,3.4c-3.4,1.1-7,1.3-10.1,1.5l-0.2,0c-6.1,0.4-13.1,0.8-18,4.9c-3.4,2.8-5.3,7.3-5.1,11.7 c0.2,4.4,2.6,8.7,6.2,11.1c2.3,1.5,5.1,2.5,8.5,2.8c0.9,0.1,1.7,0.1,2.6,0.1c5.4,0,11-1.6,16.5-4.6c5.1-2.8,9.9-6.8,15.2-12.6 c1.8-2,3.7-4.2,4.9-6.6C209.3,153.5,209.8,150.6,209.3,148z M207.3,155.9c-1.2,2.3-2.8,4.2-4.8,6.5c-5.2,5.7-10,9.7-15,12.5 c-4.3,2.4-11,5.1-18.7,4.4c-3.2-0.3-6-1.2-8.2-2.7c-3.5-2.3-5.7-6.4-5.9-10.6c-0.2-4.2,1.7-8.4,4.9-11.1 c4.7-3.9,11.3-4.3,17.6-4.7l0.2,0c3.2-0.2,6.8-0.5,10.3-1.6c2.3-0.7,4.5-1.9,6.6-3.5c0.2-0.2,0.5-0.4,0.7-0.6 c1.1-0.9,2.1-1.7,3.4-2.1c2.3-0.7,4.7-0.5,6.7,0.7c1.9,1.1,3.1,2.9,3.6,5C209.1,150.5,208.6,153.3,207.3,155.9z"/></g></g><g><g id="change1_13"><path d="M194.2,156.2c-1.7-3.2-5.3-2.2-8-1.4c-0.1,0-0.3,0.1-0.4,0.1c-1.7,0.5-3.4,1-5,1.7c-1.6,0.7-3.2,1.4-4.8,2.3 c-1.1,0.6-2.3,1.3-3.2,2.4c-1,1.2-1.3,2.7-0.8,4c0.5,1.3,1.8,2.2,3.8,2.8c1.5,0.4,3,0.6,4.4,0.6c4,0,8-1.4,11-4 c1.4-1.2,2.4-2.4,2.9-3.7C194.9,159.3,194.9,157.5,194.2,156.2z M193.6,160.6c-0.5,1.2-1.4,2.3-2.7,3.5 c-4.1,3.4-9.7,4.7-14.8,3.2c-1.8-0.5-2.9-1.3-3.3-2.4c-0.5-1.2,0.1-2.5,0.7-3.3c0.8-1,1.9-1.7,3-2.2c3-1.7,6.3-3,9.7-3.9 c0.1,0,0.3-0.1,0.4-0.1c2.6-0.7,5.7-1.6,7.1,1.1C194.2,157.7,194.2,159.2,193.6,160.6z"/></g></g><g><g id="change1_6"><path d="M62,86.4c-0.6-1.2-1.8-2.1-3.1-2.5c-1.4-0.3-2.8-0.1-3.9,0.8c-1.4,1-1.7,2.6-2,4.1c-0.1,0.4-0.2,0.8-0.3,1.2 c-1.3,4.9-4.9,9.9-9.8,13.5c-2.7,2-5.6,3.5-8.7,4.4c-2.3,0.6-4.7,1-7,1.4c-4.4,0.7-9,1.4-12.7,4c-2.4,1.7-4.5,4.8-3.3,7.6 c1.2,2.6,4.5,3.3,7,3.9c7.2,1.5,14,4.3,20.2,8.3c0.6,0.4,1.2,0.8,1.7,1.1c2.1,1.4,4.3,2.9,6.8,3.8c1.5,0.6,3,0.8,4.5,0.8 c2,0,3.8-0.5,5.2-1.5c2.3-1.7,3.7-4.8,3.8-8.4c0.1-2.3-0.4-4.7-0.8-6.9c-0.1-0.8-0.3-1.5-0.4-2.3c-1.2-7.8-0.5-15.9,2-23.4 c0.1-0.3,0.2-0.6,0.3-0.9c0.4-1.2,0.9-2.5,1.1-3.8C62.9,89.5,62.7,87.8,62,86.4z M61.9,91.3c-0.2,1.3-0.7,2.5-1.1,3.7 c-0.1,0.3-0.2,0.6-0.3,0.9c-2.6,7.6-3.3,15.8-2,23.7c0.1,0.8,0.3,1.6,0.4,2.3c0.4,2.2,0.8,4.5,0.8,6.8c-0.1,3.5-1.4,6.3-3.5,7.9 c-2.3,1.6-5.6,1.9-9,0.6c-2.4-0.9-4.5-2.3-6.6-3.7c-0.6-0.4-1.1-0.8-1.7-1.1c-6.3-4-13.1-6.8-20.4-8.4c-2.4-0.5-5.4-1.1-6.5-3.5 c-1-2.3,0.7-5.2,3-6.8c3.6-2.5,7.9-3.2,12.5-3.9c2.3-0.4,4.8-0.7,7.1-1.4c3.2-0.9,6.2-2.4,9-4.5c5-3.7,8.6-8.8,10-13.9 c0.1-0.4,0.2-0.8,0.3-1.2c0.3-1.4,0.6-2.8,1.7-3.6c1-0.7,2.2-0.9,3.4-0.6c1.1,0.3,2.1,1,2.7,2.1C62.2,88.3,62.1,90.1,61.9,91.3z"/></g></g><g><g id="change1_23"><path d="M50.4,114.2c-1.4-2-3.2-2.5-5.3-2.9c-1.8-0.3-3.7-0.3-5.5,0c-1.5,0.3-2.8,0.7-3.8,1.4c-1.2,0.8-2.1,2-2.5,3.2 c-0.4,1.4-0.2,3,0.7,4c0.9,1.1,2.2,1.5,3.4,1.8c0.2,0.1,0.4,0.1,0.6,0.2c1,0.2,2,0.5,2.8,1c0.8,0.5,1.5,1.3,2.1,2.1 c0.1,0.2,0.3,0.4,0.4,0.5c0.8,0.9,1.8,2,3.2,2.3c0.2,0.1,0.5,0.1,0.8,0.1c1.2,0,2.4-0.6,3.3-1.5c0.9-1,1.5-2.3,1.7-4 C52.8,119.6,52.1,116.6,50.4,114.2z M51.7,122.3c-0.2,1.5-0.8,2.7-1.6,3.6c-0.9,1-2.3,1.5-3.4,1.2c-1.2-0.3-2.1-1.2-2.8-2 c-0.1-0.2-0.3-0.3-0.4-0.5c-0.7-0.8-1.4-1.6-2.3-2.2c-0.9-0.6-2-0.8-3-1.1c-0.2,0-0.4-0.1-0.6-0.2c-1.1-0.3-2.3-0.7-3.1-1.6 c-0.7-0.9-1-2.2-0.6-3.4c0.3-1.1,1.1-2.1,2.2-2.8c0.9-0.6,2.1-1,3.5-1.3c1.7-0.3,3.5-0.3,5.3,0c2,0.4,3.6,0.8,4.9,2.6 C51.4,116.9,52.1,119.7,51.7,122.3z"/></g></g></g></g></svg>